<svg data-name="Group 265" xmlns="http://www.w3.org/2000/svg" viewBox="0 0 25.895 26.553"><defs><clipPath id="a"><path fill="none" stroke-width="0" d="M0 0h25.895v26.553H0z"/></clipPath></defs><g data-name="Group 265-2" clip-path="url(#a)"><path data-name="Path 309" d="M12.948 26.553a.471.471 0 01-.471-.471c0-11.181-1.122-12.334-12-12.334a.471.471 0 010-.943c10.883 0 12-1.153 12-12.334a.471.471 0 01.943 0c0 11.181 1.122 12.334 12 12.334a.472.472 0 010 .943c-10.883 0-12 1.153-12 12.334 0 .26-.211.47-.471.471M7.481 13.277c3.281.671 4.8 2.215 5.467 5.558.665-3.343 2.185-4.887 5.467-5.558-3.282-.671-4.8-2.215-5.467-5.558-.666 3.344-2.186 4.887-5.467 5.558" fill="#262c3c"/></g></svg>